<svg xmlns="http://www.w3.org/2000/svg" width="1200" height="360" viewBox="0 0 1200 360" role="img"><rect width="1200" height="360" rx="18" fill="#0d1521"/><path d="M760 60 C870 -20,970 130,1190 30" fill="none" stroke="#344a63" opacity=".5"/><path d="M760 93 C870 13,970 163,1190 63" fill="none" stroke="#527996" opacity=".5"/><path d="M760 126 C870 46,970 196,1190 96" fill="none" stroke="#d6a47a" opacity=".5"/><path d="M760 159 C870 79,970 229,1190 129" fill="none" stroke="#344a63" opacity=".5"/><path d="M760 192 C870 112,970 262,1190 162" fill="none" stroke="#527996" opacity=".5"/><path d="M760 225 C870 145,970 295,1190 195" fill="none" stroke="#d6a47a" opacity=".5"/><path d="M760 258 C870 178,970 328,1190 228" fill="none" stroke="#344a63" opacity=".5"/><path d="M760 291 C870 211,970 361,1190 261" fill="none" stroke="#527996" opacity=".5"/><circle cx="858" cy="119" r="4" fill="#dfb18b"/><circle cx="947" cy="169" r="4" fill="#dfb18b"/><circle cx="1046" cy="206" r="4" fill="#dfb18b"/><circle cx="1115" cy="90" r="4" fill="#dfb18b"/><text x="58" y="49" fill="#dfb18b" font-size="12" font-family="DejaVu Sans,Arial,sans-serif" font-weight="400">RAHMAT KHAN / ENGINEERING NOTES</text><text x="56" y="141" fill="#f0f2f7" font-size="64" font-family="DejaVu Sans,Arial,sans-serif" font-weight="700">Curious by nature.</text><text x="56" y="217" fill="#e0b48e" font-size="55" font-family="DejaVu Sans,Arial,sans-serif" font-weight="700">An engineer in progress.</text><text x="59" y="269" fill="#a3afbf" font-size="17" font-family="DejaVu Sans,Arial,sans-serif" font-weight="400">Computer Engineering at York University · Toronto, Canada</text><path d="M58 304H1142" stroke="#34404f"/><text x="59" y="335" fill="#a3afbf" font-size="11" font-family="DejaVu Sans,Arial,sans-serif" font-weight="400">APPLIED AI</text><text x="300" y="335" fill="#a3afbf" font-size="11" font-family="DejaVu Sans,Arial,sans-serif" font-weight="400">WEB SYSTEMS</text><text x="554" y="335" fill="#a3afbf" font-size="11" font-family="DejaVu Sans,Arial,sans-serif" font-weight="400">LEARNING IN PUBLIC</text><text x="995" y="335" fill="#a3afbf" font-size="11" font-family="DejaVu Sans,Arial,sans-serif" font-weight="400">SELECTED WORK</text></svg>